# xmcd CD database file
#
# Track frame offsets:
#	150
#	18552
#	34617
#	50794
#	68971
#	87365
#	108420
#	125835
#	141453
#	162545
#	180130
#	201060
#
# Disc length: 2943 seconds
#
# Revision: 0
# Processed by: cddbd v1.5.1PL2 Copyright (c) Steve Scherf et al.
# Submitted via: CDex 1.60beta1-cs1
#
DISCID=ae0b7d0c
DTITLE=Phil Coulter - Country Serenity
DYEAR=2006
DGENRE=Country
TTITLE0=If Tomorrow Never Comes
TTITLE1=We've Got Tonight
TTITLE2=Always On My Mind
TTITLE3=You Raise Me Up
TTITLE4=Amazed
TTITLE5=Sometimes When We Touch
TTITLE6=The Long Goodbye
TTITLE7=From A Distance
TTITLE8=Love Can Build A Bridge
TTITLE9=To All The Girls I've Loved Before
TTITLE10=In The Arms Of An Angel
TTITLE11=Desperado
EXTD=YEAR: 2006
EXTT0=
EXTT1=
EXTT2=
EXTT3=
EXTT4=
EXTT5=
EXTT6=
EXTT7=
EXTT8=
EXTT9=
EXTT10=
EXTT11=
PLAYORDER=
